<svg width="402" height="60" viewBox="0 0 402 60" fill="none" xmlns="http://www.w3.org/2000/svg">
<path d="M1.50981 21.0261C2.73397 15.9058 22.9205 12.6231 27.3527 11.1503C44.6024 5.41827 62.6028 3.84328 80.6554 2.58051C102.938 1.02186 126.039 5.49894 143.01 20.2103C145.365 22.2515 147.323 25.1788 148.714 28.504M148.714 28.504C151.871 36.0502 152.111 45.6454 147.458 51.5831C142.423 58.0099 133.167 59.2197 129.542 55.9957C125.916 52.7716 122.469 48.1327 126.256 39.7717C131.868 32.4334 139.981 29.4488 148.714 28.504ZM148.714 28.504C154.701 27.8562 160.981 28.1671 166.947 28.6911C184.143 30.2013 193.861 31.9623 210.737 37.3711C229.691 43.4461 249.014 48.6846 268.632 52.0432C292.928 56.2025 316.74 54.8523 341.143 51.4103C354.137 49.5775 366.8 44.3326 378.296 38.1259C385.559 34.2049 392.998 31.4387 399.317 26.0362M399.635 25.443C385.117 30.5583 368.559 35.0225 349.787 36.1422M399.672 25.863C398.355 34.9451 386.386 47.1776 378.894 53.3525" stroke="url(#paint0_linear_1_2427)" stroke-width="3" stroke-linecap="round"/>
<defs>
<linearGradient id="paint0_linear_1_2427" x1="397.5" y1="29.9999" x2="-7.49999" y2="25.4999" gradientUnits="userSpaceOnUse">
<stop stop-color="#CB9352"/>
<stop offset="1" stop-color="#D39327" stop-opacity="0"/>
</linearGradient>
</defs>
</svg>
