<svg width="46" height="42" viewBox="0 0 46 42" fill="none" xmlns="http://www.w3.org/2000/svg">
<path fill-rule="evenodd" clip-rule="evenodd" d="M32.2 9.33422C32.2031 11.0028 31.7629 12.6414 30.9258 14.0778C32.5598 14.327 34.0514 15.1628 35.1294 16.4332C36.2074 17.7036 36.8002 19.3243 36.8 21.0006V21.4906L40.7399 19.0266C41.2624 18.6999 41.8615 18.5206 42.4751 18.507C43.0888 18.4935 43.6949 18.6464 44.2309 18.9497C44.767 19.2531 45.2135 19.6961 45.5245 20.233C45.8355 20.7699 45.9996 21.3812 46 22.0039V33.9922C46 34.6151 45.8362 35.2267 45.5254 35.7639C45.2145 36.3011 44.7681 36.7444 44.2319 37.0481C43.6959 37.3518 43.0896 37.5048 42.4757 37.4914C41.8618 37.478 41.2626 37.2986 40.7399 36.9718L36.8 34.5102V35.0002C36.8 36.8567 36.073 38.6371 34.779 39.9498C33.485 41.2625 31.73 42 29.9 42H6.9C5.07001 42 3.31496 41.2625 2.02096 39.9498C0.726963 38.6371 8.02688e-08 36.8567 8.02688e-08 35.0002V21.0006C-0.000187743 19.7512 0.329247 18.5246 0.954111 17.4479C1.57897 16.3713 2.47649 15.484 3.5535 14.8781C2.53196 13.2468 2.11377 11.3009 2.37331 9.38636C2.63284 7.47179 3.55328 5.71264 4.97095 4.42169C6.38862 3.13075 8.21165 2.39168 10.1159 2.33589C12.0201 2.28011 13.8822 2.91123 15.3709 4.11703C16.4723 2.4592 18.0693 1.20395 19.9268 0.536125C21.7843 -0.131699 23.804 -0.176801 25.6887 0.40746C27.5733 0.991721 29.2232 2.17446 30.3955 3.78153C31.5677 5.38859 32.2002 7.33503 32.2 9.33422ZM23 4.66768C21.78 4.66768 20.61 5.15933 19.7473 6.03448C18.8846 6.90962 18.4 8.09658 18.4 9.33422C18.4 10.5719 18.8846 11.7588 19.7473 12.634C20.61 13.5091 21.78 14.0008 23 14.0008C24.22 14.0008 25.39 13.5091 26.2527 12.634C27.1154 11.7588 27.6 10.5719 27.6 9.33422C27.6 8.09658 27.1154 6.90962 26.2527 6.03448C25.39 5.15933 24.22 4.66768 23 4.66768ZM10.35 14.0008C11.265 14.0008 12.1425 13.632 12.7895 12.9757C13.4365 12.3193 13.8 11.4291 13.8 10.5009C13.8 9.57262 13.4365 8.68241 12.7895 8.02605C12.1425 7.36969 11.265 7.00095 10.35 7.00095C9.435 7.00095 8.55748 7.36969 7.91048 8.02605C7.26348 8.68241 6.9 9.57262 6.9 10.5009C6.9 11.4291 7.26348 12.3193 7.91048 12.9757C8.55748 13.632 9.435 14.0008 10.35 14.0008Z" fill="#A96A7D"/>
</svg>
