<svg width="102" height="101" viewBox="0 0 102 101" fill="none" xmlns="http://www.w3.org/2000/svg">
<path d="M40.0183 86.267C47.5305 89.0813 54.4387 92.2756 62.819 90.4588C79.1881 86.9101 91.478 68.6567 90.8265 51.6725C90.4973 43.091 86.7492 34.9802 82.2096 28.1717C75.0454 17.4268 64.4549 7.86524 51.9231 4.72697C42.7505 2.4299 32.3542 3.16359 23.4281 7.01526C13.8471 11.1495 7.8829 19.1301 4.28575 29.0389C1.01885 38.038 0.311576 46.4446 3.86313 55.2269C7.07512 63.1695 12.309 70.2011 19.4687 74.5413C31.6395 81.9193 47.3847 85.4781 61.586 82.7881C78.2683 79.6282 94.3763 67.1872 98.553 49.3738C102.482 32.6161 90.9339 16.6871 77.8766 8.91854C69.5703 3.9766 60.1418 0.0264431 50.2552 0.588122C41.2441 1.10007 31.9947 4.93686 24.7482 10.7786C8.68832 23.7252 -0.539145 48.632 6.36291 68.357C12.2073 85.0595 25.3858 95.7895 41.9206 99.3367C58.7589 102.949 73.2702 90.7761 82.4455 76.4793C90.9561 63.218 95.4141 46.0461 87.9565 31.8293C84.2727 24.8066 78.7555 19.7674 72.1704 15.7755C64.5326 11.1454 55.2403 7.26005 46.4054 5.78563C30.3609 3.10803 13.5858 12.891 5.95637 28.1403C2.21284 35.6226 -0.921952 44.5767 1.82433 52.7792C3.91004 59.0087 8.4751 64.2877 12.5005 69.1237C16.1714 73.5338 20.2333 79.0125 25.5832 81.3757C31.8558 84.1465 38.4912 85.9102 45.4438 85.4725C52.9998 84.9968 61.0436 82.5934 67.8969 79.0002C79.4179 72.9598 90.068 60.575 90.536 46.6173C90.7625 39.8631 87.1091 33.469 83.5864 28.229C78.8327 21.1577 71.4939 16.6782 64.1291 13.0317C57.6632 9.83023 50.329 6.77834 43.0306 6.36455C34.953 5.90658 25.1371 9.27232 18.8273 14.9355C8.9151 23.832 0.043818 39.507 2.35922 53.3046C3.57915 60.5743 7.10361 67.5595 11.455 73.2044C15.7296 78.7496 21.3708 81.8255 27.6463 84.3823C34.2107 87.0569 41.0119 89.1281 48.1269 89.7329C56.5432 90.4484 64.4893 88.1152 72.3038 84.6669C83.6446 79.6626 96.2617 72.1024 98.514 58.2304C100.573 45.5468 93.1573 33.3256 86.2986 23.9468C76.6455 10.7468 61.3913 2.9722 45.246 2.81931C33.7687 2.71062 21.2757 6.36765 13.3715 15.9311C2.04947 29.6299 1.61957 47.8602 7.58958 63.4716C9.8932 69.4955 12.8757 75.3995 17.1479 80.1033C21.7881 85.2123 27.2367 88.4313 33.4518 91.13C43.0341 95.2907 52.1864 95.699 62.2367 92.5841C84.8786 85.5668 94.0932 63.063 101.512 41.8119" stroke="#DBA96F" stroke-width="0.944444" stroke-linecap="round"/>
</svg>
