<svg width="36" height="25" viewBox="0 0 36 25" fill="none" xmlns="http://www.w3.org/2000/svg">
<path d="M4.36831 0H31.6317C34.2037 0 35.5 1.22917 35.5 3.72917V21.2708C35.5 23.75 34.2037 25 31.6317 25H4.36831C1.7963 25 0.5 23.75 0.5 21.2708V3.72917C0.5 1.22917 1.7963 0 4.36831 0ZM17.9897 17.9167L31.858 6.39583C32.3519 5.97917 32.7428 5.02083 32.1255 4.16667C31.5288 3.3125 30.4383 3.29167 29.7181 3.8125L17.9897 11.8542L6.28189 3.8125C5.56173 3.29167 4.47119 3.3125 3.87449 4.16667C3.2572 5.02083 3.64815 5.97917 4.14198 6.39583L17.9897 17.9167Z" fill="#A96A7D"/>
</svg>
