<svg width="26" height="25" viewBox="0 0 26 25" fill="none" xmlns="http://www.w3.org/2000/svg">
<path d="M14.285 0.00153794C15.1971 -0.00196222 16.1093 0.00720512 17.0211 0.0290371L17.2636 0.0377868C17.5436 0.0477864 17.8198 0.060286 18.1536 0.0752854C19.4835 0.137783 20.391 0.347776 21.1872 0.656516C22.0121 0.974005 22.7071 1.40399 23.402 2.09897C24.0375 2.72345 24.5293 3.47885 24.8432 4.31264C25.152 5.10886 25.3619 6.01758 25.4244 7.34754C25.4394 7.68003 25.4519 7.95752 25.4619 8.23751L25.4694 8.48C25.4916 9.39146 25.5012 10.3032 25.4982 11.2149L25.4994 12.1474V13.7848C25.5025 14.697 25.4929 15.6091 25.4707 16.521L25.4632 16.7635C25.4532 17.0435 25.4407 17.3197 25.4257 17.6534C25.3632 18.9834 25.1507 19.8909 24.8432 20.6871C24.5303 21.5218 24.0384 22.2778 23.402 22.902C22.777 23.5374 22.0213 24.0292 21.1872 24.3432C20.391 24.6519 19.4835 24.8619 18.1536 24.9244C17.8198 24.9394 17.5436 24.9519 17.2636 24.9619L17.0211 24.9694C16.1093 24.9917 15.1971 25.0012 14.285 24.9982L13.3526 24.9994H11.7164C10.8043 25.0025 9.89215 24.9929 8.98029 24.9707L8.7378 24.9632C8.44108 24.9524 8.14442 24.9399 7.84784 24.9257C6.51791 24.8632 5.61046 24.6507 4.813 24.3432C3.9789 24.0299 3.22338 23.538 2.59936 22.902C1.9632 22.2774 1.47095 21.5215 1.15694 20.6871C0.848203 19.8909 0.638214 18.9834 0.575717 17.6534C0.561797 17.3568 0.549297 17.0602 0.538219 16.7635L0.53197 16.521C0.508925 15.6091 0.498508 14.697 0.500721 13.7848V11.2149C0.497233 10.3032 0.5064 9.39146 0.52822 8.48L0.536969 8.23751C0.546969 7.95752 0.559468 7.68003 0.574467 7.34754C0.636964 6.01633 0.846953 5.11011 1.15569 4.31264C1.46989 3.47844 1.9631 2.72325 2.60061 2.10022C3.2242 1.46368 3.97924 0.970971 4.813 0.656516C5.61046 0.347776 6.51666 0.137783 7.84784 0.0752854L8.7378 0.0377868L8.98029 0.0315371C9.89172 0.00850393 10.8034 -0.0019135 11.7151 0.000288075L14.285 0.00153794ZM13.0001 6.25133C12.172 6.23961 11.3499 6.3926 10.5814 6.70139C9.81299 7.01019 9.11359 7.46863 8.52387 8.05008C7.93414 8.63153 7.46586 9.32439 7.14624 10.0884C6.82661 10.8524 6.66202 11.6723 6.66202 12.5005C6.66202 13.3287 6.82661 14.1486 7.14624 14.9126C7.46586 15.6766 7.93414 16.3694 8.52387 16.9509C9.11359 17.5323 9.81299 17.9908 10.5814 18.2996C11.3499 18.6084 12.172 18.7614 13.0001 18.7497C14.6576 18.7497 16.2472 18.0912 17.4193 16.9191C18.5913 15.7471 19.2498 14.1574 19.2498 12.4999C19.2498 10.8423 18.5913 9.25266 17.4193 8.0806C16.2472 6.90853 14.6576 6.25133 13.0001 6.25133ZM13.0001 8.75124C13.4982 8.74206 13.9931 8.83223 14.456 9.01649C14.9189 9.20075 15.3404 9.47539 15.6959 9.82438C16.0514 10.1734 16.3339 10.5897 16.5267 11.0491C16.7195 11.5085 16.8189 12.0016 16.819 12.4999C16.8191 12.9981 16.7199 13.4913 16.5272 13.9507C16.3345 14.4101 16.0522 14.8266 15.6968 15.1757C15.3414 15.5248 14.92 15.7996 14.4572 15.984C13.9944 16.1684 13.4994 16.2587 13.0013 16.2497C12.0068 16.2497 11.053 15.8547 10.3498 15.1514C9.64659 14.4482 9.25152 13.4944 9.25152 12.4999C9.25152 11.5053 9.64659 10.5515 10.3498 9.8483C11.053 9.14506 12.0068 8.74999 13.0013 8.74999L13.0001 8.75124ZM19.5622 4.37639C19.159 4.39253 18.7777 4.56407 18.4981 4.85509C18.2185 5.1461 18.0623 5.53402 18.0623 5.93759C18.0623 6.34115 18.2185 6.72907 18.4981 7.02008C18.7777 7.3111 19.159 7.48264 19.5622 7.49878C19.9766 7.49878 20.374 7.33417 20.667 7.04115C20.9601 6.74814 21.1247 6.35072 21.1247 5.93634C21.1247 5.52195 20.9601 5.12454 20.667 4.83152C20.374 4.5385 19.9766 4.37389 19.5622 4.37389V4.37639Z" fill="#A96A7D"/>
</svg>
