<svg width="95" height="143" viewBox="0 0 95 143" fill="none" xmlns="http://www.w3.org/2000/svg">
<path d="M23.75 23.8333C23.75 17.5123 26.2522 11.4502 30.7062 6.98062C35.1602 2.511 41.2011 0 47.5 0C53.7989 0 59.8398 2.511 64.2938 6.98062C68.7478 11.4502 71.25 17.5123 71.25 23.8333V71.5C71.25 77.821 68.7478 83.8831 64.2938 88.3527C59.8398 92.8223 53.7989 95.3333 47.5 95.3333C41.2011 95.3333 35.1602 92.8223 30.7062 88.3527C26.2522 83.8831 23.75 77.821 23.75 71.5V23.8333Z" fill="white"/>
<path d="M11.875 68.6638C11.875 67.0836 11.2494 65.5681 10.1359 64.4507C9.02245 63.3333 7.51222 62.7055 5.9375 62.7055C4.36278 62.7055 2.85255 63.3333 1.73905 64.4507C0.625555 65.5681 0 67.0836 0 68.6638V71.5C0 95.81 18.1292 115.87 41.5625 118.801V131.083H29.6875C28.1128 131.083 26.6025 131.711 25.4891 132.828C24.3756 133.946 23.75 135.461 23.75 137.042C23.75 138.622 24.3756 140.137 25.4891 141.255C26.6025 142.372 28.1128 143 29.6875 143H65.3125C66.8872 143 68.3974 142.372 69.5109 141.255C70.6244 140.137 71.25 138.622 71.25 137.042C71.25 135.461 70.6244 133.946 69.5109 132.828C68.3974 131.711 66.8872 131.083 65.3125 131.083H53.4375V118.801C64.917 117.348 75.4734 111.741 83.1258 103.032C90.7782 94.3231 95.0003 83.111 95 71.5V68.6638C95 67.0836 94.3744 65.5681 93.2609 64.4507C92.1474 63.3333 90.6372 62.7055 89.0625 62.7055C87.4878 62.7055 85.9776 63.3333 84.8641 64.4507C83.7506 65.5681 83.125 67.0836 83.125 68.6638V71.5C83.125 80.9815 79.3717 90.0746 72.6907 96.7791C66.0097 103.483 56.9483 107.25 47.5 107.25C38.0517 107.25 28.9903 103.483 22.3093 96.7791C15.6283 90.0746 11.875 80.9815 11.875 71.5V68.6638Z" fill="white"/>
</svg>
