<svg width="56" height="26" viewBox="0 0 56 26" fill="none" xmlns="http://www.w3.org/2000/svg">
<path d="M55.7714 23.5462L49.362 12.7888L55.706 2.47C55.8566 2.22411 55.9388 1.94286 55.9442 1.65503C55.9495 1.3672 55.8778 1.08312 55.7365 0.831858C55.5951 0.580597 55.3891 0.371173 55.1395 0.225012C54.89 0.0788501 54.6059 0.00119786 54.3162 0H3.27009C2.40281 0 1.57105 0.34241 0.957787 0.951904C0.344526 1.5614 0 2.38805 0 3.25L0 22.75C0 23.612 0.344526 24.4386 0.957787 25.0481C1.57105 25.6576 2.40281 26 3.27009 26H54.3652C54.6538 26 54.9373 25.924 55.1868 25.7798C55.4363 25.6357 55.6429 25.4284 55.7857 25.1792C55.9286 24.93 56.0025 24.6476 55.9999 24.3608C55.9974 24.074 55.9186 23.793 55.7714 23.5462ZM17.1843 18.1675H15.3531L10.0228 11.115V18.1838H8.17522V8.125H10.0228L15.3694 15.1938V8.125H17.2007L17.1843 18.1675ZM27.5342 9.75H21.7624V12.1712H26.9946V13.7962H21.7624V16.4125H27.5342V18.0375H19.9148V8.125H27.5178L27.5342 9.75ZM41.0887 18.135H39.2411L36.7068 10.6762L34.1724 18.1675H32.3412L29.0711 8.125H31.0659L33.2241 15.3238L35.7094 8.125H37.7041L40.0913 15.3238L42.2659 8.125H44.277L41.0887 18.135Z" fill="#A96A7D"/>
</svg>
