<svg width="54" height="46" viewBox="0 0 54 46" fill="none" xmlns="http://www.w3.org/2000/svg">
<path d="M27 0.507324C26.0161 0.507324 25.0418 0.701123 24.1327 1.07766C23.2237 1.45419 22.3977 2.00608 21.702 2.70183C21.0063 3.39757 20.4544 4.22354 20.0778 5.13257C19.7013 6.0416 19.5075 7.01589 19.5075 7.99982C19.5075 8.98375 19.7013 9.95805 20.0778 10.8671C20.4544 11.7761 21.0063 12.6021 21.702 13.2978C22.3977 13.9936 23.2237 14.5455 24.1327 14.922C25.0418 15.2985 26.0161 15.4923 27 15.4923C28.9871 15.4923 30.8929 14.7029 32.298 13.2978C33.7031 11.8927 34.4925 9.98696 34.4925 7.99982C34.4925 6.01269 33.7031 4.10694 32.298 2.70183C30.8929 1.29671 28.9871 0.507324 27 0.507324ZM43.875 4.24982C42.3832 4.24982 40.9524 4.84246 39.8975 5.89735C38.8426 6.95224 38.25 8.38298 38.25 9.87482C38.25 11.3667 38.8426 12.7974 39.8975 13.8523C40.9524 14.9072 42.3832 15.4998 43.875 15.4998C45.3668 15.4998 46.7976 14.9072 47.8525 13.8523C48.9074 12.7974 49.5 11.3667 49.5 9.87482C49.5 8.38298 48.9074 6.95224 47.8525 5.89735C46.7976 4.84246 45.3668 4.24982 43.875 4.24982ZM10.125 4.24982C8.63316 4.24982 7.20242 4.84246 6.14752 5.89735C5.09263 6.95224 4.5 8.38298 4.5 9.87482C4.5 11.3667 5.09263 12.7974 6.14752 13.8523C7.20242 14.9072 8.63316 15.4998 10.125 15.4998C11.6168 15.4998 13.0476 14.9072 14.1025 13.8523C15.1574 12.7974 15.75 11.3667 15.75 9.87482C15.75 8.38298 15.1574 6.95224 14.1025 5.89735C13.0476 4.84246 11.6168 4.24982 10.125 4.24982ZM15.75 22.9736C15.7569 21.9836 16.1551 21.0365 16.8576 20.3389C17.5601 19.6413 18.51 19.2498 19.5 19.2498H34.5C35.4946 19.2498 36.4484 19.6449 37.1516 20.3482C37.8549 21.0514 38.25 22.0053 38.25 22.9998V34.2498C38.251 35.4301 38.0662 36.6032 37.7025 37.7261C36.8721 40.2712 35.1617 42.437 32.8782 43.8344C30.5947 45.2319 27.8878 45.7696 25.2436 45.3508C22.5994 44.9321 20.1911 43.5845 18.4511 41.5499C16.7111 39.5153 15.7534 36.927 15.75 34.2498V22.9736ZM12 22.9998C12 21.6311 12.3638 20.3523 13.005 19.2498H4.5C3.50544 19.2498 2.55161 19.6449 1.84835 20.3482C1.14509 21.0514 0.750001 22.0053 0.750001 22.9998V32.3748C0.74949 33.9097 1.12585 35.4213 1.84602 36.7767C2.5662 38.1322 3.60816 39.2901 4.88041 40.1487C6.15265 41.0074 7.61627 41.5405 9.14271 41.7013C10.6692 41.8622 12.2117 41.6457 13.635 41.0711C12.558 38.9574 11.9976 36.6184 12 34.2461V22.9998ZM42 22.9998V34.2498C42 36.7061 41.4113 39.0236 40.365 41.0711C41.7883 41.6457 43.3308 41.8622 44.8573 41.7013C46.3837 41.5405 47.8473 41.0074 49.1196 40.1487C50.3918 39.2901 51.4338 38.1322 52.154 36.7767C52.8742 35.4213 53.2505 33.9097 53.25 32.3748V22.9998C53.25 22.0053 52.8549 21.0514 52.1516 20.3482C51.4484 19.6449 50.4946 19.2498 49.5 19.2498H40.995C41.6325 20.3523 42 21.6311 42 22.9998Z" fill="#A96A7D"/>
</svg>
