<svg width="51" height="46" viewBox="0 0 51 46" fill="none" xmlns="http://www.w3.org/2000/svg">
<path d="M22.5454 17.0995C22.7069 24.6457 22.3031 30.4258 21.3341 34.4398C20.5266 38.4538 18.9115 41.3438 16.489 43.1099C14.0664 45.0366 10.5133 46 5.82965 46C3.8916 46 2.43806 45.9197 1.46903 45.7592L0.5 31.7906C7.12169 31.63 11.8053 30.1047 14.5509 27.2147C17.2965 24.4852 18.427 21.1134 17.9425 17.0995H0.984514V0H22.5454V17.0995Z" fill="#73383E"/>
<path d="M50.7593 17.0995C50.9208 24.6457 50.517 30.4258 49.548 34.4398C48.7404 38.4538 47.1254 41.3438 44.7028 43.1099C42.2803 45.0366 38.7272 46 34.0435 46C32.1055 46 30.6519 45.9197 29.6829 45.7592L28.7139 31.7906C35.3356 31.63 40.0192 30.1047 42.7648 27.2147C45.5104 24.4852 46.6409 21.1134 46.1564 17.0995H29.1984V0H50.7593V17.0995Z" fill="#73383E"/>
</svg>
