<svg width="47" height="43" viewBox="0 0 47 43" fill="none" xmlns="http://www.w3.org/2000/svg">
<path fill-rule="evenodd" clip-rule="evenodd" d="M5.52108 13.2421C6.8787 9.61853 7.73151 5.7773 8.53027 2.04867C8.69953 1.24535 8.19579 0.444388 7.40235 0.319809C6.61316 0.137195 5.83417 0.656438 5.66975 1.40177C4.89876 5.01594 4.08544 8.74301 2.78143 12.1959C2.49972 12.9315 2.88246 13.7812 3.63805 14.0778C4.39305 14.3743 5.23879 13.9776 5.52108 13.2421Z" fill="#CB9352"/>
<path fill-rule="evenodd" clip-rule="evenodd" d="M19.4402 25.7302C26.072 20.2694 31.9771 13.989 38.7638 8.65787C39.3956 8.18508 39.5045 7.25995 39.0037 6.63429C38.5024 6.00858 37.5829 5.87371 36.9463 6.40449C30.1416 11.7341 24.2189 18.0131 17.569 23.4723C16.9464 24.0043 16.8609 24.9311 17.3774 25.5581C17.8981 26.1271 18.8176 26.2622 19.4402 25.7302Z" fill="#CB9352"/>
<path fill-rule="evenodd" clip-rule="evenodd" d="M42.0993 38.8907C38.5743 38.7718 35.0492 38.6526 31.5236 38.5336C30.7194 38.4666 30.0405 39.1109 30.0119 39.926C29.9838 40.7411 30.62 41.3777 31.4247 41.4448C34.9556 41.5642 38.4859 41.6839 42.0162 41.8032C42.8251 41.8123 43.5 41.1679 43.5239 40.3524C43.5431 39.595 42.9077 38.8998 42.0993 38.8907Z" fill="#CB9352"/>
</svg>
