<svg width="78" height="78" viewBox="0 0 78 78" fill="none" xmlns="http://www.w3.org/2000/svg">
<path d="M40.2342 9.93783C34.0804 9.08135 28.3188 7.83559 22.2921 10.6262C10.5203 16.0771 4.31891 31.9521 7.68411 44.6787C9.38443 51.1091 13.5892 56.6054 18.1718 60.9835C25.4041 67.8929 35.0258 73.3283 45.0283 73.5806C52.3497 73.7653 60.0833 71.4523 66.1783 67.0314C72.7204 62.2861 75.8784 55.2454 76.9212 47.1477C77.8682 39.7935 76.9809 33.3201 72.8111 27.283C69.04 21.8232 63.8948 17.3939 57.7492 15.3244C47.3024 11.8066 34.8 11.7801 24.5215 16.2152C12.4472 21.4253 2.37688 33.5529 2.23308 47.723C2.09781 61.0533 13.5204 71.1394 24.7033 74.8024C31.8173 77.1327 39.6116 78.5235 46.989 76.4267C53.7132 74.5156 60.055 70.0512 64.544 64.4102C74.4924 51.9086 77.2539 31.5229 68.7008 17.7819C61.4584 6.14647 49.683 0.265591 36.5858 0.381295C23.2482 0.499122 14.3393 12.1541 9.82269 24.5118C5.63324 35.9744 5.16833 49.7072 13.2096 59.1911C17.1817 63.8758 22.204 66.7513 27.8564 68.6547C34.4123 70.8623 42.0927 72.2272 49.0196 71.8472C61.5992 71.1571 72.6234 60.9257 75.8105 48.1095C77.3743 41.8211 78.2291 34.5232 74.766 28.7882C72.1359 24.4326 67.7927 21.2148 63.9323 18.2406C60.4118 15.5283 56.4151 12.0744 51.9719 11.1931C46.7623 10.1599 41.4487 9.94918 36.2679 11.456C30.6375 13.0936 24.9644 16.2707 20.3923 20.1456C12.7063 26.6598 6.75159 37.8218 8.75868 48.4504C9.72992 53.5936 13.5728 57.8085 17.1215 61.1731C21.9106 65.7136 28.215 67.8579 34.3982 69.3684C39.8267 70.6944 45.8862 71.7605 51.4724 70.8388C57.6551 69.8187 64.5048 65.6145 68.316 60.2669C74.303 51.8662 78.3567 38.5183 74.2729 28.4815C72.1212 23.1933 68.2759 18.5099 64.0322 14.9795C59.8635 11.5113 55.0795 10.1407 49.9039 9.26965C44.4901 8.3585 38.9993 7.94347 33.5194 8.68977C27.0372 9.57257 21.4261 12.68 16.103 16.6081C8.37794 22.3086 0.120493 30.1568 0.764512 41.0224C1.35336 50.9572 9.02569 58.9398 15.796 64.8684C25.3246 73.2124 38.169 76.5084 50.3976 73.8931C59.0908 72.0339 67.9146 67.1568 72.2712 58.5916C78.5114 46.3228 75.7528 32.4714 68.6 21.6818C65.84 17.5185 62.5871 13.5606 58.5626 10.7281C54.1913 7.65149 49.5287 6.14007 44.3747 5.15162C36.4285 3.62766 29.442 4.86716 22.3728 8.92133C6.44659 18.0549 3.28842 36.6222 1.2755 53.9389" stroke="#A96A7D" stroke-width="0.731481" stroke-linecap="round"/>
</svg>
