<svg width="31" height="30" viewBox="0 0 31 30" fill="none" xmlns="http://www.w3.org/2000/svg">
<path d="M15.5 0C7.21625 0 0.5 6.71625 0.5 15C0.5 23.2838 7.21625 30 15.5 30C23.7838 30 30.5 23.2838 30.5 15C30.5 6.71625 23.7838 0 15.5 0ZM22.8675 10.2762L20.405 21.8762C20.2237 22.6987 19.7337 22.8988 19.05 22.5113L15.3 19.7487L13.4925 21.4913C13.4039 21.6059 13.2903 21.6987 13.1603 21.7627C13.0303 21.8266 12.8874 21.8599 12.7425 21.86H12.7362L13.0025 18.0425L19.9525 11.765C20.2525 11.4987 19.885 11.3475 19.4862 11.6138L10.9 17.0212L7.2 15.8663C6.4 15.6125 6.3775 15.0663 7.36875 14.6737L21.8263 9.10125C22.4988 8.85625 23.0837 9.26125 22.8662 10.2775L22.8675 10.2762Z" fill="#A96A7D"/>
</svg>
