<svg width="31" height="25" viewBox="0 0 31 25" fill="none" xmlns="http://www.w3.org/2000/svg">
<path d="M15.8668 0C16.6678 0.00468779 18.6719 0.0250015 20.802 0.11407L21.5581 0.148446C23.7017 0.25314 25.8438 0.434402 26.9073 0.742234C28.3249 1.15788 29.4379 2.36734 29.8145 3.90181C30.4145 6.33946 30.4895 11.0929 30.4985 12.2445L30.5 12.482V12.7539C30.4895 13.9056 30.4145 18.6605 29.8145 21.0966C29.4334 22.6358 28.3189 23.8468 26.9073 24.2562C25.8438 24.564 23.7017 24.7453 21.5581 24.85L20.802 24.8859C18.6719 24.9734 16.6678 24.9953 15.8668 24.9984L15.5142 25H15.1317C13.4366 24.9891 6.34729 24.9094 4.09118 24.2562C2.67511 23.8406 1.56055 22.6311 1.18403 21.0966C0.584004 18.659 0.509 13.9056 0.5 12.7539V12.2445C0.509 11.0929 0.584004 6.3379 1.18403 3.90181C1.56505 2.36265 2.67961 1.15163 4.09268 0.743796C6.34729 0.0890678 13.4381 0.00937559 15.1332 0H15.8668ZM12.4991 7.03169V17.9699L21.4995 12.5008L12.4991 7.03169Z" fill="#A96A7D"/>
</svg>
