<svg width="1600" height="833" viewBox="0 0 1600 833" fill="none" xmlns="http://www.w3.org/2000/svg">
<path fill-rule="evenodd" clip-rule="evenodd" d="M-6 233.352C84.2594 377.32 383.891 480.871 538.003 487.654C549.937 488.179 561.97 488.474 574.088 488.549C428.392 559.046 290.57 677.379 177.027 854.189C176.643 854.786 176.816 855.582 177.414 855.966C178.012 856.35 178.808 856.177 179.191 855.579C293.708 677.254 432.942 558.583 579.997 488.569C702.531 488.61 833.604 466.45 960.45 432.789C983.262 426.735 1005.94 420.31 1028.41 413.573C1103.48 422.029 1176.15 440.47 1244.09 467.392C1285.66 483.866 1315.9 494.47 1337.44 499.844C1348.2 502.53 1356.84 503.924 1363.66 504.074C1370.47 504.224 1375.61 503.14 1379.24 500.714C1382.93 498.248 1384.86 494.523 1385.5 489.84C1386.13 485.204 1385.51 479.562 1384.05 473.072C1381.58 462.095 1376.64 448.329 1370.88 432.283C1369.83 429.365 1368.76 426.371 1367.67 423.305C1355.67 389.604 1341.49 346.855 1337.77 298.208C1457.6 244.741 1553.46 191.14 1605.43 154.051C1622.57 141.826 1633.79 118.492 1635.53 92.6378C1637.27 66.7448 1629.52 38.1517 1608.49 15.3046C1599.56 5.61425 1585.48 1.05753 1568.93 0.378897C1552.36 -0.300642 1533.12 2.89666 1513.64 8.92373C1474.7 20.9695 1434.44 44.4249 1412.1 71.3965C1353.87 141.708 1334.99 209.893 1334.29 270.548C1334.18 279.397 1334.47 288.085 1335.07 296.594C1243.71 337.283 1138.47 377.86 1028.17 410.959C882.026 394.594 726.803 415.948 579.414 485.996C565.53 485.983 551.758 485.684 538.116 485.084C385.081 478.348 86.4075 375.502 -3.42636 232.61L-6 233.352ZM959.79 430.302C834.966 463.427 706.14 485.374 585.478 485.983C728.906 418.96 879.555 397.973 1021.81 412.857C1001.29 418.95 980.595 424.781 959.79 430.302ZM1245.03 465.001C1178.67 438.701 1107.81 420.473 1034.61 411.705C1142.59 378.999 1245.58 339.229 1335.27 299.32C1339.13 347.961 1353.31 390.648 1365.24 424.167C1366.34 427.255 1367.42 430.262 1368.47 433.187C1374.23 449.247 1379.11 462.829 1381.54 473.636C1382.97 480.02 1383.52 485.309 1382.95 489.492C1382.39 493.627 1380.75 496.611 1377.81 498.575C1374.81 500.579 1370.29 501.646 1363.72 501.502C1357.17 501.358 1348.74 500.013 1338.06 497.348C1316.7 492.018 1286.59 481.468 1245.03 465.001ZM1603.94 151.957C1552.24 188.851 1456.86 242.203 1337.57 295.479C1337.02 287.336 1336.76 279.031 1336.86 270.578C1337.56 210.494 1356.23 142.883 1414.08 73.0377C1436.01 46.5652 1475.78 23.3305 1514.4 11.3817C1533.7 5.41159 1552.63 2.28561 1568.82 2.94956C1585.04 3.61456 1598.33 8.068 1606.59 17.0473C1627.1 39.3188 1634.66 67.1954 1632.96 92.465C1631.26 117.773 1620.28 140.294 1603.94 151.957Z" fill="url(#paint0_linear_1_3418)"/>
<defs>
<linearGradient id="paint0_linear_1_3418" x1="146.397" y1="562.017" x2="1552.82" y2="280.236" gradientUnits="userSpaceOnUse">
<stop offset="0.00827658" stop-color="#D39327" stop-opacity="0.39"/>
<stop offset="0.0618121" stop-color="#D39327" stop-opacity="0.24"/>
<stop offset="0.629313" stop-color="#D39327" stop-opacity="0.19"/>
<stop offset="0.997133" stop-color="#D39327" stop-opacity="0.57"/>
</linearGradient>
</defs>
</svg>
