<svg width="1600" height="604" viewBox="0 0 1600 604" fill="none" xmlns="http://www.w3.org/2000/svg">
<path d="M1843 49.1635C1577.37 -79.4883 1483.45 84.0841 1513.5 140.299C1525.8 163.299 1559 140.299 1533 122.299C1483.33 96.7967 1383 224.799 1217.5 101.299C1189 73.7991 1143.5 49.7991 1096 41.7991C1081.5 114.341 1282.2 433.905 1245.5 499.799C1201.5 578.799 966 654.299 846 557.299C745.932 476.411 765.5 429.799 705 346.416C655.425 278.091 552.5 292.143 552.5 330.299C552.5 351.112 572 361.799 581 346.416C596.555 319.829 579.446 226.438 334 260.5C211.5 277.5 116.381 293.474 -90.5 373.5" stroke="url(#paint0_linear_117_5436)" stroke-width="1.3"/>
<defs>
<linearGradient id="paint0_linear_117_5436" x1="241" y1="151.799" x2="1843" y2="132.799" gradientUnits="userSpaceOnUse">
<stop stop-color="#C19561" stop-opacity="0.22"/>
<stop offset="0.485109" stop-color="#EC97A7"/>
<stop offset="1" stop-color="#F7DEC0" stop-opacity="0.1"/>
</linearGradient>
</defs>
</svg>
