<svg width="1599" height="604" viewBox="0 0 1599 604" fill="none" xmlns="http://www.w3.org/2000/svg">
<path d="M-4 48.8642C261.625 -79.7876 355.553 83.7848 325.5 140C313.204 163 280 140 306 122C355.669 96.4974 456 224.5 621.5 101C650 73.4998 695.5 49.4998 743 41.4998C757.497 114.042 556.8 433.606 593.5 499.5C637.5 578.5 873 654 993 557C1093.07 476.112 1073.5 429.5 1134 346.117C1183.57 277.791 1286.5 291.843 1286.5 330C1286.5 350.813 1267 361.5 1258 346.117C1242.44 319.529 1346 137 1598 144" stroke="url(#paint0_linear_1_2370)" stroke-width="1.3"/>
<defs>
<linearGradient id="paint0_linear_1_2370" x1="1598" y1="151.5" x2="-4.00001" y2="132.5" gradientUnits="userSpaceOnUse">
<stop stop-color="#C19561" stop-opacity="0.22"/>
<stop offset="0.485109" stop-color="#AF3149"/>
<stop offset="1" stop-color="#C19561" stop-opacity="0.1"/>
</linearGradient>
</defs>
</svg>
