<svg width="839" height="503" viewBox="0 0 839 503" fill="none" xmlns="http://www.w3.org/2000/svg">
<path d="M29 30.2837H809V482.284C809 493.329 800.046 502.284 789 502.284H49C37.9543 502.284 29 493.329 29 482.284V30.2837Z" fill="#FFEEF2"/>
<g filter="url(#filter0_f_1_4505)">
<path d="M30 30.2837L53.1409 151.549C54.9148 160.845 59.927 169.21 67.2868 175.159L354.058 406.959C390.451 436.376 442.379 436.621 479.048 407.548L771.459 175.712C778.976 169.752 784.101 161.289 785.899 151.866L809 30.8107L30 30.2837Z" fill="url(#paint0_linear_1_4505)"/>
</g>
<path d="M29 30.2837L51.958 135.371C53.8571 144.064 58.6005 151.875 65.4378 157.57L354.229 398.087C391.251 428.921 444.996 428.972 482.076 398.208L771.513 158.077C778.381 152.379 783.146 144.548 785.051 135.83L808 30.7837L29 30.2837Z" fill="#FFEEF2"/>
<defs>
<filter id="filter0_f_1_4505" x="0" y="0.283691" width="839" height="458.905" filterUnits="userSpaceOnUse" color-interpolation-filters="sRGB">
<feFlood flood-opacity="0" result="BackgroundImageFix"/>
<feBlend mode="normal" in="SourceGraphic" in2="BackgroundImageFix" result="shape"/>
<feGaussianBlur stdDeviation="15" result="effect1_foregroundBlur_1_4505"/>
</filter>
<linearGradient id="paint0_linear_1_4505" x1="419.5" y1="30.2837" x2="419.5" y2="420.284" gradientUnits="userSpaceOnUse">
<stop stop-color="#855768" stop-opacity="0.02"/>
<stop offset="1" stop-color="#855768" stop-opacity="0.2"/>
</linearGradient>
</defs>
</svg>
