<svg width="75" height="73" viewBox="0 0 75 73" fill="none" xmlns="http://www.w3.org/2000/svg">
<path d="M28.1059 62.1334C33.3437 64.5158 38.131 67.1398 44.215 66.2564C56.0987 64.5309 65.7782 52.0976 66.1371 39.9309C66.3184 33.7834 64.0309 27.8031 61.1138 22.7141C56.5101 14.6828 49.3976 7.32737 40.5842 4.46512C34.1332 2.37009 26.6595 2.37988 20.0862 4.69009C13.0307 7.16979 8.37592 12.5765 5.32099 19.478C2.54653 25.7459 1.63214 31.7171 3.74648 38.1674C5.65866 44.001 9.06168 49.2838 13.9732 52.739C22.3224 58.6125 33.4145 61.9342 43.7054 60.715C55.7943 59.2828 67.9231 51.1912 71.7767 38.6709C75.4018 26.8925 67.9134 14.9404 58.949 8.74402C53.2463 4.8022 46.6926 1.51343 39.5919 1.42555C33.12 1.34544 26.3162 3.62903 20.8479 7.4442C8.72893 15.8994 0.917231 33.2378 4.89712 47.6721C8.26714 59.8945 17.1745 68.2128 28.832 71.5653C40.7034 74.9793 51.6769 67.0003 58.9358 57.2397C65.669 48.1861 69.6926 36.138 65.0477 25.6116C62.7533 20.4119 59.0508 16.5386 54.5334 13.3607C49.2938 9.67476 42.8344 6.43905 36.5851 4.94848C25.2361 2.24156 12.7592 8.40107 6.55988 18.9186C3.5181 24.0792 0.840349 30.3215 2.40672 36.3177C3.59633 40.8717 6.60595 44.8692 9.25101 48.5235C11.6631 51.856 14.303 55.9713 18.0158 57.9245C22.369 60.2144 27.0306 61.8029 32.0261 61.8342C37.4551 61.8682 43.3269 60.549 48.4046 58.321C56.9407 54.5753 65.1619 46.2538 66.1748 36.3048C66.665 31.4903 64.3618 26.7412 62.096 22.8231C59.0384 17.5357 54.0055 13.9722 48.9135 11.0025C44.443 8.39523 39.344 5.85188 34.1425 5.19511C28.3856 4.46823 21.1993 6.38723 16.4098 10.1212C8.88599 15.9869 1.77758 26.7472 2.76388 36.7196C3.28354 41.9739 5.46579 47.1389 8.30478 51.3873C11.0936 55.5606 14.9802 58.0374 19.3459 60.1747C23.9124 62.4103 28.6778 64.2266 33.7388 65.0108C39.7255 65.9384 45.5238 64.6647 51.2823 62.5876C59.6391 59.5734 69.0333 54.7962 71.3186 44.9966C73.4081 36.0366 68.6959 26.9381 64.2444 19.8979C57.9793 9.98932 47.4434 3.67989 35.8997 2.77179C27.6935 2.12624 18.5777 4.12089 12.4581 10.5626C3.69233 19.7896 2.49918 32.7932 6.01205 44.2423C7.36756 48.6602 9.21462 53.026 12.0426 56.598C15.1143 60.4778 18.8561 63.0473 23.1716 65.2829C29.8251 68.7297 36.3534 69.4742 43.6951 67.7461C60.2352 63.8528 67.9209 48.2306 74.2612 33.4146" stroke="#DBA96F" stroke-width="0.675926" stroke-linecap="round"/>
<path d="M49.7988 38.8301C49.7988 39.0545 49.7103 39.2843 49.5386 39.4565C49.195 39.8011 48.6329 39.8011 48.2894 39.4565L36.5311 27.6635L24.9446 39.2843C24.6011 39.6288 24.0389 39.6288 23.6954 39.2843C23.3518 38.9397 23.3518 38.3759 23.6954 38.0314L35.9065 25.7789C36.25 25.4344 36.8122 25.4344 37.1557 25.7789L49.5386 38.1984C49.7155 38.3759 49.7988 38.6004 49.7988 38.8301Z" fill="#DBA96F"/>
</svg>
