<svg width="129" height="30" viewBox="0 0 129 30" fill="none" xmlns="http://www.w3.org/2000/svg">
<path d="M6.1 22.8333V25H5.21541e-08V0.666665H5.76667V2.83333H2.5V11.8H4.86667V12.5333H2.5V22.8333H6.1ZM15.2546 7.26667C14.499 7.48889 13.8657 7.88889 13.3546 8.46667C12.8657 9.02222 12.4101 9.95555 11.9879 11.2667C11.5212 12.6667 11.1879 13.8 10.9879 14.6667L11.1212 14.8L14.4212 14.3667L15.9546 25H13.4212L12.7546 18.3667C12.6434 17.2333 12.4434 16.4667 12.1546 16.0667C11.8657 15.6444 11.4212 15.4667 10.8212 15.5333C10.7323 16.0444 10.6879 16.6222 10.6879 17.2667V25H8.35456V5H10.6879V7.7L9.88789 14.2667L10.2212 14.3333L12.9879 5H15.9879V7.06667L15.2546 7.26667ZM26.2992 21.6333C26.3214 22.8111 26.1992 23.7222 25.9326 24.3667C25.6659 25.0111 25.1659 25.3333 24.4326 25.3333C23.8326 25.3333 23.3992 25.1111 23.1326 24.6667C22.8659 24.2 22.7326 23.3444 22.7326 22.1C22.7326 21.7444 22.777 20.9222 22.8659 19.6333L22.5326 19.5667C22.377 21.1667 22.177 22.3889 21.9326 23.2333C21.6881 24.0556 21.4103 24.6111 21.0992 24.9C20.7881 25.1889 20.3992 25.3333 19.9326 25.3333C18.6437 25.3333 17.9992 24.5444 17.9992 22.9667V20.6667C17.9992 19.8667 18.1214 19.1778 18.3659 18.6C18.6103 18.0222 18.9548 17.4889 19.3992 17C19.8437 16.5111 20.5214 15.8444 21.4326 15L22.0326 14.4333V8.26667C22.0326 7.73333 21.9437 7.37778 21.7659 7.2C21.5881 7.02222 21.2214 6.93333 20.6659 6.93333C19.8437 6.93333 19.277 7.1 18.9659 7.43333C18.6548 7.74444 18.4992 8.21111 18.4992 8.83333C18.4992 9.56667 18.7214 10.3222 19.1659 11.1C19.6103 11.8778 20.4881 12.9222 21.7992 14.2333H18.5992C18.0214 12.8556 17.7326 11.1778 17.7326 9.2C17.7326 8.48889 17.8992 7.78889 18.2326 7.1C18.5659 6.38889 19.0214 5.81111 19.5992 5.36667C20.177 4.9 20.7992 4.66667 21.4659 4.66667C22.4214 4.66667 23.1437 4.91111 23.6326 5.4C24.1214 5.86667 24.3659 6.53333 24.3659 7.4V21.0667C24.3659 21.8889 24.4214 22.4333 24.5326 22.7C24.6659 22.9444 24.8437 23.0667 25.0659 23.0667C25.2437 23.0667 25.377 22.9778 25.4659 22.8C25.5548 22.6222 25.6103 22.2778 25.6326 21.7667L25.7326 15.9333H26.1992L26.2992 21.6333ZM20.8992 22.9C21.2548 22.9 21.5326 22.4444 21.7326 21.5333C21.9326 20.6 22.0326 19.3556 22.0326 17.8V15.1333C21.3437 15.8 20.8881 16.3889 20.6659 16.9C20.4437 17.3889 20.3326 18.0111 20.3326 18.7667V22.1C20.3326 22.6333 20.5214 22.9 20.8992 22.9ZM33.6721 7.16667H31.3055V25H28.9721V7.16667H26.5721V5H33.6721V7.16667ZM37.4488 20.3C37.4488 21.3889 37.6044 22.1222 37.9155 22.5C38.2488 22.8778 38.6933 23.0667 39.2488 23.0667C40.1822 23.0667 40.6822 21.9333 40.7488 19.6667L40.8488 15.7667H41.3155L41.4155 19.7667C41.4599 21.4111 41.2044 22.7556 40.6488 23.8C40.0933 24.8222 39.2711 25.3333 38.1822 25.3333C37.1377 25.3333 36.3599 25.0333 35.8488 24.4333C35.3599 23.8333 35.1155 22.8333 35.1155 21.4333V9.2C35.1155 7.64444 35.4377 6.5 36.0822 5.76667C36.7266 5.03333 37.5822 4.66667 38.6488 4.66667C39.6044 4.66667 40.3044 4.97778 40.7488 5.6C41.2155 6.2 41.4488 7.2 41.4488 8.6V13.9333H37.4488V20.3ZM38.4155 6.93333C38.0377 6.93333 37.7822 7.08889 37.6488 7.4C37.5155 7.71111 37.4488 8.2 37.4488 8.86667V13.4667H39.4488V9.7C39.4488 8.56667 39.3711 7.82222 39.2155 7.46667C39.0599 7.11111 38.7933 6.93333 38.4155 6.93333ZM51.4874 7.36667V19.6667C51.4874 21.6444 51.2318 23.0889 50.7207 24C50.2318 24.8889 49.454 25.3333 48.3874 25.3333C47.654 25.3333 46.8874 24.9667 46.0874 24.2333L45.8874 24.4333L46.7207 25.3V29.3333H44.3874V5H46.6874V5.36667L45.9207 10.4333L46.254 10.5C46.5651 8.21111 46.9763 6.66667 47.4874 5.86667C47.9985 5.06667 48.6207 4.66667 49.354 4.66667C49.9763 4.66667 50.4874 4.91111 50.8874 5.4C51.2874 5.88889 51.4874 6.54444 51.4874 7.36667ZM48.854 22.5667C49.0096 22.1222 49.0874 21.2222 49.0874 19.8667V8.66667C49.0874 7.51111 48.7985 6.93333 48.2207 6.93333C47.9763 6.93333 47.7318 7.16667 47.4874 7.63333C47.2651 8.1 47.0763 8.74444 46.9207 9.56667C46.7874 10.3889 46.7207 11.2889 46.7207 12.2667V22.5333C47.1651 22.9778 47.6429 23.2 48.154 23.2C48.4874 23.2 48.7207 22.9889 48.854 22.5667ZM61.7543 25H59.3876L59.5876 16.8L60.0543 9.1H59.5543L56.7876 25H54.421V5H56.821L56.5876 13.2L56.121 20.9H56.5876L59.3876 5H61.7543V25ZM71.7889 5V25H69.4556V15.2H67.0223V25H64.6889V5H67.0223V14.5333H69.4556V5H71.7889ZM82.9559 21.6333C82.9781 22.8111 82.8559 23.7222 82.5892 24.3667C82.3225 25.0111 81.8225 25.3333 81.0892 25.3333C80.4892 25.3333 80.0559 25.1111 79.7892 24.6667C79.5225 24.2 79.3892 23.3444 79.3892 22.1C79.3892 21.7444 79.4336 20.9222 79.5225 19.6333L79.1892 19.5667C79.0336 21.1667 78.8336 22.3889 78.5892 23.2333C78.3448 24.0556 78.067 24.6111 77.7559 24.9C77.4448 25.1889 77.0559 25.3333 76.5892 25.3333C75.3003 25.3333 74.6559 24.5444 74.6559 22.9667V20.6667C74.6559 19.8667 74.7781 19.1778 75.0225 18.6C75.267 18.0222 75.6114 17.4889 76.0559 17C76.5003 16.5111 77.1781 15.8444 78.0892 15L78.6892 14.4333V8.26667C78.6892 7.73333 78.6003 7.37778 78.4225 7.2C78.2448 7.02222 77.8781 6.93333 77.3225 6.93333C76.5003 6.93333 75.9336 7.1 75.6225 7.43333C75.3114 7.74444 75.1559 8.21111 75.1559 8.83333C75.1559 9.56667 75.3781 10.3222 75.8225 11.1C76.267 11.8778 77.1448 12.9222 78.4559 14.2333H75.2559C74.6781 12.8556 74.3892 11.1778 74.3892 9.2C74.3892 8.48889 74.5559 7.78889 74.8892 7.1C75.2225 6.38889 75.6781 5.81111 76.2559 5.36667C76.8336 4.9 77.4559 4.66667 78.1225 4.66667C79.0781 4.66667 79.8003 4.91111 80.2892 5.4C80.7781 5.86667 81.0225 6.53333 81.0225 7.4V21.0667C81.0225 21.8889 81.0781 22.4333 81.1892 22.7C81.3225 22.9444 81.5003 23.0667 81.7225 23.0667C81.9003 23.0667 82.0336 22.9778 82.1225 22.8C82.2114 22.6222 82.267 22.2778 82.2892 21.7667L82.3892 15.9333H82.8559L82.9559 21.6333ZM77.5559 22.9C77.9114 22.9 78.1892 22.4444 78.3892 21.5333C78.5892 20.6 78.6892 19.3556 78.6892 17.8V15.1333C78.0003 15.8 77.5448 16.3889 77.3225 16.9C77.1003 17.3889 76.9892 18.0111 76.9892 18.7667V22.1C76.9892 22.6333 77.1781 22.9 77.5559 22.9ZM96.9548 24.2333C96.2215 24.9667 95.2659 25.3333 94.0882 25.3333C92.8882 25.3333 91.9882 25.0333 91.3882 24.4333C90.8104 23.8333 90.5215 22.8333 90.5215 21.4333V4.83333C90.5215 3.3 90.8882 2.16667 91.6215 1.43333C92.3548 0.699999 93.3104 0.333333 94.4882 0.333333C95.6882 0.333333 96.577 0.633333 97.1548 1.23333C97.7548 1.83333 98.0548 2.83333 98.0548 4.23333V20.8333C98.0548 22.3667 97.6882 23.5 96.9548 24.2333ZM95.1882 3.16667C94.9659 2.78889 94.6548 2.6 94.2548 2.6C93.7882 2.6 93.4659 2.75556 93.2882 3.06667C93.1104 3.37778 93.0215 3.85556 93.0215 4.5V20.3C93.0215 21.3889 93.1437 22.1222 93.3882 22.5C93.6548 22.8778 94.0215 23.0667 94.4882 23.0667C94.8882 23.0667 95.1659 22.9111 95.3215 22.6C95.477 22.2889 95.5548 21.8111 95.5548 21.1667V5.36667C95.5548 4.27778 95.4326 3.54444 95.1882 3.16667ZM109.043 21.6333C109.065 22.8111 108.943 23.7222 108.676 24.3667C108.41 25.0111 107.91 25.3333 107.176 25.3333C106.576 25.3333 106.143 25.1111 105.876 24.6667C105.61 24.2 105.476 23.3444 105.476 22.1C105.476 21.7444 105.521 20.9222 105.61 19.6333L105.276 19.5667C105.121 21.1667 104.921 22.3889 104.676 23.2333C104.432 24.0556 104.154 24.6111 103.843 24.9C103.532 25.1889 103.143 25.3333 102.676 25.3333C101.387 25.3333 100.743 24.5444 100.743 22.9667V20.6667C100.743 19.8667 100.865 19.1778 101.11 18.6C101.354 18.0222 101.699 17.4889 102.143 17C102.587 16.5111 103.265 15.8444 104.176 15L104.776 14.4333V8.26667C104.776 7.73333 104.687 7.37778 104.51 7.2C104.332 7.02222 103.965 6.93333 103.41 6.93333C102.587 6.93333 102.021 7.1 101.71 7.43333C101.399 7.74444 101.243 8.21111 101.243 8.83333C101.243 9.56667 101.465 10.3222 101.91 11.1C102.354 11.8778 103.232 12.9222 104.543 14.2333H101.343C100.765 12.8556 100.476 11.1778 100.476 9.2C100.476 8.48889 100.643 7.78889 100.976 7.1C101.31 6.38889 101.765 5.81111 102.343 5.36667C102.921 4.9 103.543 4.66667 104.21 4.66667C105.165 4.66667 105.887 4.91111 106.376 5.4C106.865 5.86667 107.11 6.53333 107.11 7.4V21.0667C107.11 21.8889 107.165 22.4333 107.276 22.7C107.41 22.9444 107.587 23.0667 107.81 23.0667C107.987 23.0667 108.121 22.9778 108.21 22.8C108.299 22.6222 108.354 22.2778 108.376 21.7667L108.476 15.9333H108.943L109.043 21.6333ZM103.643 22.9C103.999 22.9 104.276 22.4444 104.476 21.5333C104.676 20.6 104.776 19.3556 104.776 17.8V15.1333C104.087 15.8 103.632 16.3889 103.41 16.9C103.187 17.3889 103.076 18.0111 103.076 18.7667V22.1C103.076 22.6333 103.265 22.9 103.643 22.9ZM118.412 7.36667V19.6667C118.412 21.6444 118.156 23.0889 117.645 24C117.156 24.8889 116.379 25.3333 115.312 25.3333C114.579 25.3333 113.812 24.9667 113.012 24.2333L112.812 24.4333L113.645 25.3V29.3333H111.312V5H113.612V5.36667L112.845 10.4333L113.179 10.5C113.49 8.21111 113.901 6.66667 114.412 5.86667C114.923 5.06667 115.545 4.66667 116.279 4.66667C116.901 4.66667 117.412 4.91111 117.812 5.4C118.212 5.88889 118.412 6.54444 118.412 7.36667ZM115.779 22.5667C115.934 22.1222 116.012 21.2222 116.012 19.8667V8.66667C116.012 7.51111 115.723 6.93333 115.145 6.93333C114.901 6.93333 114.656 7.16667 114.412 7.63333C114.19 8.1 114.001 8.74444 113.845 9.56667C113.712 10.3889 113.645 11.2889 113.645 12.2667V22.5333C114.09 22.9778 114.568 23.2 115.079 23.2C115.412 23.2 115.645 22.9889 115.779 22.5667ZM127.179 24.2333C126.512 24.9667 125.646 25.3333 124.579 25.3333C123.49 25.3333 122.679 25.0333 122.146 24.4333C121.612 23.8333 121.346 22.8333 121.346 21.4333V9.16667C121.346 7.63333 121.679 6.5 122.346 5.76667C123.034 5.03333 123.912 4.66667 124.979 4.66667C126.068 4.66667 126.879 4.96667 127.412 5.56667C127.946 6.16667 128.212 7.16667 128.212 8.56667V20.8333C128.212 22.3667 127.868 23.5 127.179 24.2333ZM125.512 7.5C125.29 7.12222 124.979 6.93333 124.579 6.93333C124.223 6.93333 123.979 7.08889 123.846 7.4C123.734 7.71111 123.679 8.18889 123.679 8.83333V20.3C123.679 21.3889 123.79 22.1222 124.012 22.5C124.234 22.8778 124.557 23.0667 124.979 23.0667C125.334 23.0667 125.568 22.9111 125.679 22.6C125.812 22.2889 125.879 21.8111 125.879 21.1667V9.7C125.879 8.61111 125.757 7.87778 125.512 7.5Z" fill="#FFFDFA"/>
</svg>
