<svg width="71" height="25" viewBox="0 0 71 25" fill="none" xmlns="http://www.w3.org/2000/svg">
<path d="M2.58325 22.153C3.57183 21.6609 4.53892 21.3998 5.47382 21.3728C6.00495 21.3252 6.52673 21.3192 7.0485 21.3276C7.79438 21.3448 8.53442 21.3825 9.27327 21.456C10.6786 21.5908 12.0734 21.7886 13.4682 22.0007C16.2531 22.4672 19.0462 22.8561 21.8966 22.9169C24.8533 22.974 27.8041 23.066 30.762 23.116C33.5658 23.169 36.3707 23.215 39.1593 23.3588C41.9478 23.5027 44.7375 23.6826 47.5624 23.6241C50.4526 23.5623 53.3006 23.752 56.1405 23.9907C57.4898 24.1017 58.8485 24.1857 60.247 23.9601C60.9848 23.8538 61.7086 23.7164 62.4347 23.6081C63.1608 23.4998 63.8612 23.4016 64.5721 23.3267C65.2193 23.2771 65.8439 23.3817 66.4396 23.6396C66.661 23.6169 66.9003 23.4384 67.1365 23.1197C67.3727 22.801 67.5986 22.3519 67.7945 21.8117L68.5427 19.6379C69.648 15.7521 70.3654 11.4695 70.5869 7.43559C70.5849 6.67367 70.5865 5.90516 70.588 5.13665C70.5786 4.56296 70.5111 4.06579 70.3914 3.68873C70.2717 3.31167 70.1035 3.06624 69.9016 2.97396C69.5444 3.00034 69.1837 3.04768 68.8265 3.05969C68.4693 3.0717 68.188 3.0174 67.881 2.97316C67.2111 2.86092 66.5247 2.83215 65.8407 2.80378C64.4108 2.74386 62.9809 2.78453 61.5662 2.67686C58.8255 2.46202 56.1177 2.03712 53.3395 2.06028C51.8501 2.06941 50.356 2.12088 48.8677 2.12302C47.516 2.12649 46.176 2.06007 44.836 1.97928C41.9817 1.82683 39.1168 1.73728 36.2414 1.71062C33.4073 1.68129 30.5755 1.62361 27.7402 1.60127C26.1722 1.59245 24.6065 1.56965 23.0431 1.53288C21.6424 1.48503 20.2675 1.28344 18.8902 1.09582C16.0749 0.710406 13.2631 0.304016 10.3788 0.330938C9.66906 0.341372 8.9535 0.386756 8.22622 0.516388C7.63553 0.618608 7.03078 0.804688 6.42367 1.06222C5.95134 1.29359 5.4735 1.59248 4.99214 1.95762C4.70853 2.16473 4.42104 2.46933 4.13724 2.86339C3.56955 3.75478 3.05116 5.01443 2.65181 6.47281C1.7847 9.45525 1.15099 12.7097 0.813288 15.9147C0.594232 17.7543 0.514988 19.5403 0.580704 21.1566L0.811039 22.7183C0.912292 23.0966 1.07393 23.3185 1.27249 23.3518C1.47104 23.385 1.69618 23.2279 1.91519 22.9033C2.13679 22.5991 2.36061 22.3477 2.58325 22.153Z" fill="#B05B64" fill-opacity="0.2"/>
</svg>
