<svg width="268" height="263" viewBox="0 0 268 263" fill="none" xmlns="http://www.w3.org/2000/svg">
<path fill-rule="evenodd" clip-rule="evenodd" d="M163.368 192.693C135.917 193.163 109.53 218.277 85.1924 205.575C58.4191 191.602 41.145 159.776 42.5023 129.614C43.7822 101.172 70.0682 82.3677 91.5765 63.7045C109.058 48.5356 128.649 34.1706 151.789 34.7835C173.325 35.354 190.007 51.3709 205.125 66.7122C218.678 80.4652 225.21 97.5231 231.578 115.749C241.804 145.02 261.071 162.294 240.5 185.5C219.854 208.79 194.493 192.161 163.368 192.693Z" fill="#FFEEF2"/>
<path fill-rule="evenodd" clip-rule="evenodd" d="M181.44 86.5681C159.943 71.5865 152.413 37.6371 126.368 34.7525C97.7164 31.5791 67.0815 47.6124 52.0931 72.2421C37.9597 95.4669 48.7691 124.361 55.8688 150.601C61.6392 171.928 69.5092 193.741 88.1674 205.57C105.532 216.579 127.278 212.762 147.426 208.648C165.487 204.96 179.747 194.915 194.498 183.858C218.189 166.1 261.436 155.48 257.498 126.139C253.545 96.6906 205.814 103.555 181.44 86.5681Z" stroke="#A96A7D" stroke-opacity="0.5"/>
</svg>
