<svg width="216" height="192" viewBox="0 0 216 192" fill="none" xmlns="http://www.w3.org/2000/svg">
<path fill-rule="evenodd" clip-rule="evenodd" d="M116.497 26.7008C143.236 26.3494 174.7 7.93726 193.668 26.833C212.637 45.7294 197.493 77.5784 194.286 104.192C191.669 125.899 193.551 150.598 177.029 164.873C161.049 178.679 137.592 171.16 116.497 171.4C94.967 171.645 72.6698 177.961 54.5734 166.267C32.7699 152.176 14.9973 130.077 12.5016 104.192C9.81772 76.3557 18.9326 45.519 41.3227 28.8351C62.2373 13.2506 90.439 27.0432 116.497 26.7008Z" fill="#FFEEF2"/>
<path fill-rule="evenodd" clip-rule="evenodd" d="M83.1316 34.1099C58.2901 40.3219 24.6581 30.964 11.7179 53.0996C-1.22267 75.236 20.5856 101.027 30.0638 124.888C37.7945 144.35 42.092 167.682 60.879 176.861C79.0504 185.74 98.9278 173.042 118.517 168.106C138.509 163.07 160.697 163.468 174.591 148.214C191.331 129.835 202.381 105.025 198.362 80.4447C194.039 54.0108 178.059 27.6833 153.25 17.7074C130.076 8.38893 107.34 28.0563 83.1316 34.1099Z" stroke="#A96A7D" stroke-opacity="0.5" stroke-width="0.765238"/>
</svg>
