<svg width="207" height="198" viewBox="0 0 207 198" fill="none" xmlns="http://www.w3.org/2000/svg">
<path fill-rule="evenodd" clip-rule="evenodd" d="M110.724 171.274C87.1487 177.976 60.7037 191.669 40.3262 178.105C19.9377 164.533 20.9744 135.045 19.6039 110.62C18.4695 90.4035 21.6439 70.3554 33.3516 53.8035C44.7811 37.6448 62.5482 28.6983 81.5425 23.0536C103.175 16.6249 126.368 10.1995 146.602 20.1482C169.028 31.1744 187.139 52.2259 191.007 76.875C194.778 100.904 181.576 123.879 165.794 142.436C151.849 158.833 131.448 165.382 110.724 171.274Z" fill="#FFEEF2"/>
<path fill-rule="evenodd" clip-rule="evenodd" d="M176.625 92.6622C182.992 115.44 196.094 141.017 182.918 160.624C169.735 180.241 141.284 179.115 117.708 180.334C98.1946 181.343 78.8619 178.195 62.9392 166.826C47.3948 155.729 38.837 138.546 33.4706 120.192C27.3588 99.2895 21.2568 76.8814 30.9432 57.3979C41.6786 35.8041 62.0699 18.4167 85.8724 14.7885C109.076 11.2514 131.191 24.0892 149.031 39.3975C164.794 52.9239 171.028 72.6388 176.625 92.6622Z" stroke="#A96A7D" stroke-opacity="0.5"/>
</svg>
