<svg width="292" height="288" viewBox="0 0 292 288" fill="none" xmlns="http://www.w3.org/2000/svg">
<path fill-rule="evenodd" clip-rule="evenodd" d="M73.4168 84.4997C84.6563 60.6643 103.472 41.2782 128.965 34.7313C155.555 27.9027 183.567 39.9842 204.77 57.346C224.522 73.5203 247.544 94.6626 251 120C254.309 144.264 243.019 190.989 226.5 209.113C211.077 226.035 182.69 209.979 160.5 215.5C135.059 221.83 107.648 241.397 85.7948 227C63.9845 212.631 75.1116 178.643 73.4171 152.53C72.0163 130.944 64.1801 104.088 73.4168 84.4997Z" fill="#FFEEF2"/>
<path fill-rule="evenodd" clip-rule="evenodd" d="M107.535 48.2283C131.335 32.362 159.616 17.6342 186.985 25.8256C215.533 34.3695 234.811 61.2922 244.8 89.3102C254.106 115.412 249.027 143.556 238.049 169.05C227.536 193.464 211.622 218 186.112 225.599C162.293 232.694 141.247 212.249 117.523 204.954C90.3231 196.59 51.4122 206.039 39.1571 180.412C26.9264 154.837 56.3089 129.468 69.359 104.24C80.1472 83.3845 87.9754 61.2671 107.535 48.2283Z" stroke="#A96A7D" stroke-opacity="0.5"/>
</svg>
